<?xml version="1.0" encoding="UTF-8" standalone="no"?>
<!DOCTYPE svg PUBLIC "-//W3C//DTD SVG 1.1//EN"
 "http://www.w3.org/Graphics/SVG/1.1/DTD/svg11.dtd">
<!-- Generated by graphviz version 2.38.0 (20140413.2041)
 -->
<!-- Title: snakemake_dag Pages: 1 -->
<svg width="854pt" height="404pt"
 viewBox="0.00 0.00 854.00 404.00" xmlns="http://www.w3.org/2000/svg" xmlns:xlink="http://www.w3.org/1999/xlink">
<g id="graph0" class="graph" transform="scale(1 1) rotate(0) translate(4 400)">
<title>snakemake_dag</title>
<polygon fill="white" stroke="none" points="-4,4 -4,-400 850,-400 850,4 -4,4"/>
<!-- 0 -->
<g id="node1" class="node"><title>0</title>
<path fill="none" stroke="#56d8a9" stroke-width="2" d="M436,-36C436,-36 406,-36 406,-36 400,-36 394,-30 394,-24 394,-24 394,-12 394,-12 394,-6 400,-0 406,-0 406,-0 436,-0 436,-0 442,-0 448,-6 448,-12 448,-12 448,-24 448,-24 448,-30 442,-36 436,-36"/>
<text text-anchor="middle" x="421" y="-15.5" font-family="sans" font-size="10.00">all</text>
</g>
<!-- 1 -->
<g id="node2" class="node"><title>1</title>
<path fill="none" stroke="#59d856" stroke-width="2" d="M318.5,-108C318.5,-108 215.5,-108 215.5,-108 209.5,-108 203.5,-102 203.5,-96 203.5,-96 203.5,-84 203.5,-84 203.5,-78 209.5,-72 215.5,-72 215.5,-72 318.5,-72 318.5,-72 324.5,-72 330.5,-78 330.5,-84 330.5,-84 330.5,-96 330.5,-96 330.5,-102 324.5,-108 318.5,-108"/>
<text text-anchor="middle" x="267" y="-87.5" font-family="sans" font-size="10.00">add_metrics_to_database</text>
</g>
<!-- 1&#45;&gt;0 -->
<g id="edge1" class="edge"><title>1&#45;&gt;0</title>
<path fill="none" stroke="grey" stroke-width="2" d="M304.673,-71.8761C329.042,-60.7991 360.595,-46.4567 384.69,-35.5045"/>
<polygon fill="grey" stroke="grey" stroke-width="2" points="386.202,-38.6621 393.857,-31.3378 383.305,-32.2896 386.202,-38.6621"/>
</g>
<!-- 2 -->
<g id="node3" class="node"><title>2</title>
<path fill="none" stroke="#59d856" stroke-width="2" d="M472.5,-108C472.5,-108 369.5,-108 369.5,-108 363.5,-108 357.5,-102 357.5,-96 357.5,-96 357.5,-84 357.5,-84 357.5,-78 363.5,-72 369.5,-72 369.5,-72 472.5,-72 472.5,-72 478.5,-72 484.5,-78 484.5,-84 484.5,-84 484.5,-96 484.5,-96 484.5,-102 478.5,-108 472.5,-108"/>
<text text-anchor="middle" x="421" y="-87.5" font-family="sans" font-size="10.00">add_metrics_to_database</text>
</g>
<!-- 2&#45;&gt;0 -->
<g id="edge2" class="edge"><title>2&#45;&gt;0</title>
<path fill="none" stroke="grey" stroke-width="2" d="M421,-71.6966C421,-63.9827 421,-54.7125 421,-46.1124"/>
<polygon fill="grey" stroke="grey" stroke-width="2" points="424.5,-46.1043 421,-36.1043 417.5,-46.1044 424.5,-46.1043"/>
</g>
<!-- 3 -->
<g id="node4" class="node"><title>3</title>
<path fill="none" stroke="#59d856" stroke-width="2" d="M630.5,-108C630.5,-108 527.5,-108 527.5,-108 521.5,-108 515.5,-102 515.5,-96 515.5,-96 515.5,-84 515.5,-84 515.5,-78 521.5,-72 527.5,-72 527.5,-72 630.5,-72 630.5,-72 636.5,-72 642.5,-78 642.5,-84 642.5,-84 642.5,-96 642.5,-96 642.5,-102 636.5,-108 630.5,-108"/>
<text text-anchor="middle" x="579" y="-87.5" font-family="sans" font-size="10.00">add_metrics_to_database</text>
</g>
<!-- 3&#45;&gt;0 -->
<g id="edge3" class="edge"><title>3&#45;&gt;0</title>
<path fill="none" stroke="grey" stroke-width="2" d="M540.349,-71.8761C515.185,-60.7276 482.556,-46.2715 457.775,-35.2929"/>
<polygon fill="grey" stroke="grey" stroke-width="2" points="458.919,-31.9713 448.358,-31.1206 456.083,-38.3714 458.919,-31.9713"/>
</g>
<!-- 4 -->
<g id="node5" class="node"><title>4</title>
<path fill="none" stroke="#afd856" stroke-width="2" d="M286,-180C286,-180 212,-180 212,-180 206,-180 200,-174 200,-168 200,-168 200,-156 200,-156 200,-150 206,-144 212,-144 212,-144 286,-144 286,-144 292,-144 298,-150 298,-156 298,-156 298,-168 298,-168 298,-174 292,-180 286,-180"/>
<text text-anchor="middle" x="249" y="-159.5" font-family="sans" font-size="10.00">extract_qc_metrics</text>
</g>
<!-- 4&#45;&gt;1 -->
<g id="edge4" class="edge"><title>4&#45;&gt;1</title>
<path fill="none" stroke="grey" stroke-width="2" d="M253.449,-143.697C255.455,-135.898 257.869,-126.509 260.101,-117.829"/>
<polygon fill="grey" stroke="grey" stroke-width="2" points="263.501,-118.661 262.602,-108.104 256.722,-116.918 263.501,-118.661"/>
</g>
<!-- 5 -->
<g id="node6" class="node"><title>5</title>
<path fill="none" stroke="#afd856" stroke-width="2" d="M458,-180C458,-180 384,-180 384,-180 378,-180 372,-174 372,-168 372,-168 372,-156 372,-156 372,-150 378,-144 384,-144 384,-144 458,-144 458,-144 464,-144 470,-150 470,-156 470,-156 470,-168 470,-168 470,-174 464,-180 458,-180"/>
<text text-anchor="middle" x="421" y="-159.5" font-family="sans" font-size="10.00">extract_qc_metrics</text>
</g>
<!-- 5&#45;&gt;2 -->
<g id="edge5" class="edge"><title>5&#45;&gt;2</title>
<path fill="none" stroke="grey" stroke-width="2" d="M421,-143.697C421,-135.983 421,-126.712 421,-118.112"/>
<polygon fill="grey" stroke="grey" stroke-width="2" points="424.5,-118.104 421,-108.104 417.5,-118.104 424.5,-118.104"/>
</g>
<!-- 6 -->
<g id="node7" class="node"><title>6</title>
<path fill="none" stroke="#afd856" stroke-width="2" d="M642,-180C642,-180 568,-180 568,-180 562,-180 556,-174 556,-168 556,-168 556,-156 556,-156 556,-150 562,-144 568,-144 568,-144 642,-144 642,-144 648,-144 654,-150 654,-156 654,-156 654,-168 654,-168 654,-174 648,-180 642,-180"/>
<text text-anchor="middle" x="605" y="-159.5" font-family="sans" font-size="10.00">extract_qc_metrics</text>
</g>
<!-- 6&#45;&gt;3 -->
<g id="edge6" class="edge"><title>6&#45;&gt;3</title>
<path fill="none" stroke="grey" stroke-width="2" d="M598.573,-143.697C595.645,-135.813 592.113,-126.304 588.86,-117.546"/>
<polygon fill="grey" stroke="grey" stroke-width="2" points="592.116,-116.26 585.353,-108.104 585.554,-118.697 592.116,-116.26"/>
</g>
<!-- 7 -->
<g id="node8" class="node"><title>7</title>
<path fill="none" stroke="#d8ac56" stroke-width="2" d="M284,-252C284,-252 186,-252 186,-252 180,-252 174,-246 174,-240 174,-240 174,-228 174,-228 174,-222 180,-216 186,-216 186,-216 284,-216 284,-216 290,-216 296,-222 296,-228 296,-228 296,-240 296,-240 296,-246 290,-252 284,-252"/>
<text text-anchor="middle" x="235" y="-231.5" font-family="sans" font-size="10.00">run_max_quant_analysis</text>
</g>
<!-- 7&#45;&gt;4 -->
<g id="edge7" class="edge"><title>7&#45;&gt;4</title>
<path fill="none" stroke="grey" stroke-width="2" d="M238.461,-215.697C240.003,-207.983 241.858,-198.712 243.578,-190.112"/>
<polygon fill="grey" stroke="grey" stroke-width="2" points="247.05,-190.597 245.579,-180.104 240.186,-189.224 247.05,-190.597"/>
</g>
<!-- 8 -->
<g id="node9" class="node"><title>8</title>
<path fill="none" stroke="#d8ac56" stroke-width="2" d="M470,-252C470,-252 372,-252 372,-252 366,-252 360,-246 360,-240 360,-240 360,-228 360,-228 360,-222 366,-216 372,-216 372,-216 470,-216 470,-216 476,-216 482,-222 482,-228 482,-228 482,-240 482,-240 482,-246 476,-252 470,-252"/>
<text text-anchor="middle" x="421" y="-231.5" font-family="sans" font-size="10.00">run_max_quant_analysis</text>
</g>
<!-- 8&#45;&gt;5 -->
<g id="edge8" class="edge"><title>8&#45;&gt;5</title>
<path fill="none" stroke="grey" stroke-width="2" d="M421,-215.697C421,-207.983 421,-198.712 421,-190.112"/>
<polygon fill="grey" stroke="grey" stroke-width="2" points="424.5,-190.104 421,-180.104 417.5,-190.104 424.5,-190.104"/>
</g>
<!-- 9 -->
<g id="node10" class="node"><title>9</title>
<path fill="none" stroke="#d8ac56" stroke-width="2" d="M663,-252C663,-252 565,-252 565,-252 559,-252 553,-246 553,-240 553,-240 553,-228 553,-228 553,-222 559,-216 565,-216 565,-216 663,-216 663,-216 669,-216 675,-222 675,-228 675,-228 675,-240 675,-240 675,-246 669,-252 663,-252"/>
<text text-anchor="middle" x="614" y="-231.5" font-family="sans" font-size="10.00">run_max_quant_analysis</text>
</g>
<!-- 9&#45;&gt;6 -->
<g id="edge9" class="edge"><title>9&#45;&gt;6</title>
<path fill="none" stroke="grey" stroke-width="2" d="M611.775,-215.697C610.783,-207.983 609.592,-198.712 608.486,-190.112"/>
<polygon fill="grey" stroke="grey" stroke-width="2" points="611.946,-189.576 607.199,-180.104 605.003,-190.469 611.946,-189.576"/>
</g>
<!-- 10 -->
<g id="node11" class="node"><title>10</title>
<path fill="none" stroke="#56a9d8" stroke-width="2" d="M294,-324C294,-324 176,-324 176,-324 170,-324 164,-318 164,-312 164,-312 164,-300 164,-300 164,-294 170,-288 176,-288 176,-288 294,-288 294,-288 300,-288 306,-294 306,-300 306,-300 306,-312 306,-312 306,-318 300,-324 294,-324"/>
<text text-anchor="middle" x="235" y="-303.5" font-family="sans" font-size="10.00">prepare_max_quant_analysis</text>
</g>
<!-- 10&#45;&gt;7 -->
<g id="edge10" class="edge"><title>10&#45;&gt;7</title>
<path fill="none" stroke="grey" stroke-width="2" d="M235,-287.697C235,-279.983 235,-270.712 235,-262.112"/>
<polygon fill="grey" stroke="grey" stroke-width="2" points="238.5,-262.104 235,-252.104 231.5,-262.104 238.5,-262.104"/>
</g>
<!-- 11 -->
<g id="node12" class="node"><title>11</title>
<path fill="none" stroke="#d85656" stroke-width="2" d="M260,-396C260,-396 12,-396 12,-396 6,-396 0,-390 0,-384 0,-384 0,-372 0,-372 0,-366 6,-360 12,-360 12,-360 260,-360 260,-360 266,-360 272,-366 272,-372 272,-372 272,-384 272,-384 272,-390 266,-396 260,-396"/>
<text text-anchor="middle" x="136" y="-381" font-family="sans" font-size="10.00">copy_raw_file</text>
<text text-anchor="middle" x="136" y="-370" font-family="sans" font-size="10.00">filename: 20180318_QX2_AnBr_SA_Atul_Peptide_01_1to10</text>
</g>
<!-- 11&#45;&gt;7 -->
<g id="edge11" class="edge"><title>11&#45;&gt;7</title>
<path fill="none" stroke="grey" stroke-width="2" d="M135.919,-359.771C136.629,-340.663 140.234,-309.676 155,-288 163.459,-275.582 175.887,-265.336 188.438,-257.272"/>
<polygon fill="grey" stroke="grey" stroke-width="2" points="190.35,-260.206 197.099,-252.038 186.73,-254.215 190.35,-260.206"/>
</g>
<!-- 11&#45;&gt;10 -->
<g id="edge16" class="edge"><title>11&#45;&gt;10</title>
<path fill="none" stroke="grey" stroke-width="2" d="M160.218,-359.876C172.923,-350.893 188.664,-339.763 202.423,-330.034"/>
<polygon fill="grey" stroke="grey" stroke-width="2" points="204.544,-332.821 210.689,-324.19 200.503,-327.105 204.544,-332.821"/>
</g>
<!-- 12 -->
<g id="node13" class="node"><title>12</title>
<path fill="none" stroke="#56a9d8" stroke-width="2" d="M570,-324C570,-324 452,-324 452,-324 446,-324 440,-318 440,-312 440,-312 440,-300 440,-300 440,-294 446,-288 452,-288 452,-288 570,-288 570,-288 576,-288 582,-294 582,-300 582,-300 582,-312 582,-312 582,-318 576,-324 570,-324"/>
<text text-anchor="middle" x="511" y="-303.5" font-family="sans" font-size="10.00">prepare_max_quant_analysis</text>
</g>
<!-- 12&#45;&gt;8 -->
<g id="edge12" class="edge"><title>12&#45;&gt;8</title>
<path fill="none" stroke="grey" stroke-width="2" d="M488.753,-287.697C477.418,-278.881 463.47,-268.032 451.181,-258.474"/>
<polygon fill="grey" stroke="grey" stroke-width="2" points="453.034,-255.481 442.991,-252.104 448.736,-261.007 453.034,-255.481"/>
</g>
<!-- 13 -->
<g id="node14" class="node"><title>13</title>
<path fill="none" stroke="#d85656" stroke-width="2" d="M550,-396C550,-396 302,-396 302,-396 296,-396 290,-390 290,-384 290,-384 290,-372 290,-372 290,-366 296,-360 302,-360 302,-360 550,-360 550,-360 556,-360 562,-366 562,-372 562,-372 562,-384 562,-384 562,-390 556,-396 550,-396"/>
<text text-anchor="middle" x="426" y="-381" font-family="sans" font-size="10.00">copy_raw_file</text>
<text text-anchor="middle" x="426" y="-370" font-family="sans" font-size="10.00">filename: 20180318_QX2_AnBr_SA_Atul_Peptide_01_1to20</text>
</g>
<!-- 13&#45;&gt;8 -->
<g id="edge13" class="edge"><title>13&#45;&gt;8</title>
<path fill="none" stroke="grey" stroke-width="2" d="M425.397,-359.871C424.545,-335.67 422.979,-291.211 421.965,-262.393"/>
<polygon fill="grey" stroke="grey" stroke-width="2" points="425.455,-262.06 421.605,-252.189 418.459,-262.306 425.455,-262.06"/>
</g>
<!-- 13&#45;&gt;12 -->
<g id="edge17" class="edge"><title>13&#45;&gt;12</title>
<path fill="none" stroke="grey" stroke-width="2" d="M447.011,-359.697C457.716,-350.881 470.89,-340.032 482.496,-330.474"/>
<polygon fill="grey" stroke="grey" stroke-width="2" points="484.736,-333.163 490.23,-324.104 480.286,-327.76 484.736,-333.163"/>
</g>
<!-- 14 -->
<g id="node15" class="node"><title>14</title>
<path fill="none" stroke="#56a9d8" stroke-width="2" d="M772,-324C772,-324 654,-324 654,-324 648,-324 642,-318 642,-312 642,-312 642,-300 642,-300 642,-294 648,-288 654,-288 654,-288 772,-288 772,-288 778,-288 784,-294 784,-300 784,-300 784,-312 784,-312 784,-318 778,-324 772,-324"/>
<text text-anchor="middle" x="713" y="-303.5" font-family="sans" font-size="10.00">prepare_max_quant_analysis</text>
</g>
<!-- 14&#45;&gt;9 -->
<g id="edge14" class="edge"><title>14&#45;&gt;9</title>
<path fill="none" stroke="grey" stroke-width="2" d="M688.782,-287.876C676.077,-278.893 660.336,-267.763 646.577,-258.034"/>
<polygon fill="grey" stroke="grey" stroke-width="2" points="648.497,-255.105 638.311,-252.19 644.456,-260.821 648.497,-255.105"/>
</g>
<!-- 15 -->
<g id="node16" class="node"><title>15</title>
<path fill="none" stroke="#d85656" stroke-width="2" d="M834,-396C834,-396 592,-396 592,-396 586,-396 580,-390 580,-384 580,-384 580,-372 580,-372 580,-366 586,-360 592,-360 592,-360 834,-360 834,-360 840,-360 846,-366 846,-372 846,-372 846,-384 846,-384 846,-390 840,-396 834,-396"/>
<text text-anchor="middle" x="713" y="-381" font-family="sans" font-size="10.00">copy_raw_file</text>
<text text-anchor="middle" x="713" y="-370" font-family="sans" font-size="10.00">filename: 20180318_QX2_AnBr_SA_Atul_Peptide_01_1to5</text>
</g>
<!-- 15&#45;&gt;9 -->
<g id="edge15" class="edge"><title>15&#45;&gt;9</title>
<path fill="none" stroke="grey" stroke-width="2" d="M675.099,-359.962C659.834,-351.278 643.411,-339.284 633,-324 620.599,-305.796 616.07,-281.024 614.517,-262.237"/>
<polygon fill="grey" stroke="grey" stroke-width="2" points="618.009,-262.002 613.919,-252.229 611.021,-262.42 618.009,-262.002"/>
</g>
<!-- 15&#45;&gt;14 -->
<g id="edge18" class="edge"><title>15&#45;&gt;14</title>
<path fill="none" stroke="grey" stroke-width="2" d="M713,-359.697C713,-351.983 713,-342.712 713,-334.112"/>
<polygon fill="grey" stroke="grey" stroke-width="2" points="716.5,-334.104 713,-324.104 709.5,-334.104 716.5,-334.104"/>
</g>
</g>
</svg>
